<svg width="32" height="32" viewBox="0 0 32 32" fill="none" xmlns="http://www.w3.org/2000/svg">
  <!-- Calendar base -->
  <rect x="4" y="6" width="24" height="20" rx="2" fill="#3B82F6" stroke="#1E40AF" stroke-width="1"/>
  
  <!-- Calendar header -->
  <rect x="4" y="6" width="24" height="6" rx="2" fill="#1E40AF"/>
  
  <!-- Calendar rings -->
  <rect x="9" y="3" width="2" height="6" rx="1" fill="#6B7280"/>
  <rect x="21" y="3" width="2" height="6" rx="1" fill="#6B7280"/>
  
  <!-- Calendar grid lines -->
  <line x1="4" y1="16" x2="28" y2="16" stroke="#E5E7EB" stroke-width="0.5"/>
  <line x1="4" y1="20" x2="28" y2="20" stroke="#E5E7EB" stroke-width="0.5"/>
  <line x1="10" y1="12" x2="10" y2="26" stroke="#E5E7EB" stroke-width="0.5"/>
  <line x1="16" y1="12" x2="16" y2="26" stroke="#E5E7EB" stroke-width="0.5"/>
  <line x1="22" y1="12" x2="22" y2="26" stroke="#E5E7EB" stroke-width="0.5"/>
  
  <!-- Lazy/sleepy eyes -->
  <path d="M12 14 Q13 15 14 14" stroke="#1E40AF" stroke-width="1.5" fill="none" stroke-linecap="round"/>
  <path d="M18 14 Q19 15 20 14" stroke="#1E40AF" stroke-width="1.5" fill="none" stroke-linecap="round"/>
  
  <!-- Sleepy mouth -->
  <circle cx="16" cy="18" r="1" fill="#1E40AF"/>
  
  <!-- ZZZ sleep indicator -->
  <text x="24" y="8" font-family="Arial, sans-serif" font-size="6" fill="#6B7280" font-weight="bold">Z</text>
  <text x="26" y="6" font-family="Arial, sans-serif" font-size="4" fill="#9CA3AF" font-weight="bold">z</text>
  <text x="27" y="4" font-family="Arial, sans-serif" font-size="3" fill="#D1D5DB" font-weight="bold">z</text>
</svg>